<svg width="135" height="135" viewBox="0 0 135 135" fill="none" xmlns="http://www.w3.org/2000/svg">
<g clip-path="url(#clip0_203_4)">
<path d="M44.2243 2.32816C21.0858 2.32816 2.32788 21.0861 2.32788 44.2245C2.32788 67.363 21.0858 86.1209 44.2243 86.1209C67.3627 86.1209 86.1206 67.363 86.1206 44.2245C86.1206 21.0861 67.3627 2.32816 44.2243 2.32816Z" fill="#F6D397"/>
<path d="M44.2242 88.4484C19.8382 88.4484 0.000244141 68.6105 0.000244141 44.2245C0.000244141 19.8384 19.8382 0.00050354 44.2242 0.00050354C68.6102 0.00050354 88.4481 19.8384 88.4481 44.2245C88.4481 68.6105 68.6102 88.4484 44.2242 88.4484ZM44.2242 4.65566C22.4055 4.65566 4.6554 22.4058 4.6554 44.2245C4.6554 66.0431 22.4055 83.7932 44.2242 83.7932C66.0429 83.7932 83.793 66.0431 83.793 44.2245C83.793 22.4058 66.0429 4.65566 44.2242 4.65566Z" fill="#8D6C9F"/>
<path d="M74.4943 44.2315C74.4943 60.9458 60.9455 74.4947 44.2312 74.4947H43.1721C36.7061 74.2782 30.4822 71.9762 25.4313 67.9309C24.2233 66.9812 23.0898 65.9385 22.0447 64.8096C20.4596 63.0849 19.0817 61.1809 17.9412 59.135C17.1335 57.7361 16.4376 56.2744 15.8603 54.7661C14.629 51.3888 13.989 47.8253 13.968 44.2315C13.968 27.5172 27.5168 13.9684 44.2312 13.9684C45.5858 13.966 46.9381 14.0615 48.2788 14.2523C50.4947 14.5409 52.6709 15.0809 54.7658 15.8607C56.2927 16.4263 57.766 17.1222 59.1719 17.9415C61.2201 19.0844 63.1264 20.4693 64.8465 22.0637C65.9777 23.0971 67.0228 24.2237 67.9678 25.4293C71.9991 30.4848 74.2872 36.7088 74.492 43.1701C74.4943 43.5123 74.4943 43.8731 74.4943 44.2315Z" fill="#F9E3AE"/>
<path d="M74.4944 43.1725L62.5795 55.0687L59.3652 58.304L56.7164 60.9342L43.1745 74.4947C36.7085 74.2782 30.4846 71.9762 25.4338 67.9309L62.0139 31.3135L67.9143 25.4317C71.9643 30.4802 74.2733 36.7041 74.4944 43.1725ZM64.7907 22.0637L22.0448 64.791C20.4597 63.0663 19.0818 61.1623 17.9413 59.1164L59.1743 17.9415C61.2039 19.089 63.0893 20.4716 64.7907 22.0637ZM54.7659 15.8607L15.8604 54.7661C15.0714 52.669 14.5314 50.4834 14.2521 48.2605L19.6427 42.814L23.8976 38.5592L48.2789 14.2523C50.4948 14.5433 52.671 15.081 54.7659 15.8607Z" fill="#FFEFCA"/>
<path d="M44.2312 76.8222C26.2623 76.8222 11.6428 62.2027 11.6428 44.2315C11.6428 26.2626 26.2623 11.6431 44.2312 11.6431C45.5184 11.6431 46.5588 12.6836 46.5588 13.9707C46.5588 15.2579 45.5184 16.2983 44.2312 16.2983C28.8296 16.2983 16.298 28.8299 16.298 44.2315C16.298 59.6354 28.8296 72.1671 44.2312 72.1671C59.6351 72.1671 72.1668 59.6354 72.1668 44.2315C72.1668 37.7143 69.8741 31.374 65.7124 26.372C64.8884 25.3851 65.0235 23.9164 66.0127 23.0948C67.0019 22.2732 68.4683 22.4082 69.2899 23.3951C74.1476 29.228 76.8219 36.6297 76.8219 44.2315C76.8219 62.2027 62.2024 76.8222 44.2312 76.8222Z" fill="#8D6C9F"/>
<path d="M60.3567 20.9488C59.9308 20.9488 59.5025 20.8324 59.1161 20.5903C57.147 19.3474 55.0289 18.3535 52.8223 17.6413C51.598 17.2456 50.9277 15.9352 51.3187 14.7109C51.7144 13.4889 53.0272 12.8209 54.2491 13.2073C56.8304 14.0405 59.3046 15.1973 61.602 16.6497C62.6889 17.3364 63.0125 18.7748 62.3282 19.8618C61.8836 20.5647 61.1295 20.9488 60.3567 20.9488Z" fill="#8D6C9F"/>
<path d="M90.7688 48.8797C67.635 48.8797 48.8794 67.6353 48.8794 90.7691C48.8794 113.903 67.635 132.658 90.7688 132.658C113.903 132.658 132.658 113.903 132.658 90.7691C132.658 67.6353 113.905 48.8797 90.7688 48.8797Z" fill="#F6D397"/>
<path d="M90.7687 134.986C66.3874 134.986 46.5518 115.15 46.5518 90.7691C46.5518 66.3877 66.3874 46.5521 90.7687 46.5521C115.15 46.5521 134.986 66.3877 134.986 90.7691C134.986 115.15 115.15 134.986 90.7687 134.986ZM90.7687 51.2073C68.9547 51.2073 51.2069 68.955 51.2069 90.7691C51.2069 112.583 68.9547 130.331 90.7687 130.331C112.583 130.331 130.331 112.583 130.331 90.7691C130.331 68.955 112.583 51.2073 90.7687 51.2073Z" fill="#8D6C9F"/>
<path d="M121.034 90.776C121.034 107.488 107.488 121.035 90.7758 121.035H89.7168C83.2508 120.818 77.0268 118.516 71.9783 114.473C70.7703 113.523 69.6368 112.481 68.594 111.352C67.0089 109.627 65.631 107.723 64.4905 105.68C63.6828 104.281 62.9869 102.819 62.4096 101.311C61.1784 97.9333 60.5383 94.3698 60.5197 90.776C60.5197 74.0641 74.0661 60.5176 90.7781 60.5176C92.1328 60.5152 93.4851 60.6107 94.8258 60.8015C97.0417 61.0901 99.2179 61.6301 101.313 62.4099C102.837 62.9755 104.313 63.6714 105.719 64.4907C107.767 65.6336 109.673 67.0185 111.391 68.6129C112.522 69.6463 113.567 70.7729 114.512 71.9785C118.544 77.034 120.832 83.2556 121.037 89.717C121.034 90.0592 121.034 90.4176 121.034 90.776Z" fill="#F9E3AE"/>
<path d="M121.034 89.717L109.119 101.611L105.905 104.846L103.259 107.474L89.7167 121.035C83.2507 120.818 77.0268 118.516 71.9783 114.473L108.551 77.8603L114.452 71.9785C118.504 77.0271 120.813 83.2487 121.034 89.717ZM111.333 68.6129L68.594 111.333C67.0089 109.608 65.6333 107.705 64.4905 105.661L105.716 64.4907C107.746 65.6382 109.631 67.0208 111.333 68.6129ZM101.31 62.4099L62.4096 101.311C61.6206 99.2135 61.0806 97.0302 60.8013 94.8051L66.1919 89.3586L70.4467 85.1037L94.8234 60.8038C97.0393 61.0925 99.2156 61.6325 101.31 62.4099Z" fill="#FFEFCA"/>
<path d="M26.2553 28.5832L28.7458 33.0964L33.259 35.5636L28.7458 38.0309L26.2553 42.544L23.7881 38.0309L19.2749 35.5636L23.7881 33.0964L26.2553 28.5832ZM31.6273 60.5758L32.7911 62.6938L34.9092 63.8576L32.7911 65.0214L31.6273 67.1395L30.4636 65.0214L28.3455 63.8576L30.4636 62.6938L31.6273 60.5758ZM61.4832 30.2544L63.4616 33.8854L67.1159 35.8872L63.4616 37.8656L61.4832 41.5199L59.4815 37.8656L55.8504 35.8872L59.4815 33.8854L61.4832 30.2544Z" fill="#FFF8F8"/>
<path d="M110.048 91.4278L112.539 95.9409L117.052 98.4082L112.539 100.875L110.048 105.389L107.581 100.875L103.068 98.4082L107.581 95.9409L110.048 91.4278ZM78.179 104.8L79.3428 106.918L81.4608 108.082L79.3428 109.245L78.179 111.363L77.0152 109.245L74.8971 108.082L77.0152 106.918L78.179 104.8ZM77.7763 69.8232L79.7547 73.4542L83.409 75.4559L79.7547 77.4344L77.7763 81.0887L75.7746 77.4344L72.1436 75.4559L75.7746 73.4542L77.7763 69.8232Z" fill="#FFF8F8"/>
<path d="M41.8897 30.2567H46.5425C47.8274 30.2567 48.8701 31.2995 48.8701 32.5843C48.8701 33.8691 49.9129 34.9119 51.1977 34.9119C52.4825 34.9119 53.5253 33.8691 53.5253 32.5843C53.5253 28.7298 50.3993 25.6039 46.5449 25.6039V23.2763C46.5449 21.9915 45.5021 20.9488 44.2173 20.9488C42.9325 20.9488 41.8897 21.9915 41.8897 23.2763V25.6039C38.0352 25.6039 34.9093 28.7298 34.9093 32.5843V39.5647C34.9093 43.4192 38.0352 46.5451 41.8897 46.5451H46.5425C47.8274 46.5451 48.8701 47.5879 48.8701 48.8727V55.8531C48.8701 57.1379 47.8274 58.1807 46.5425 58.1807H41.8897C40.6049 58.1807 39.5621 57.1379 39.5621 55.8531C39.5621 54.5683 38.5194 53.5255 37.2346 53.5255C35.9497 53.5255 34.907 54.5683 34.907 55.8531C34.907 59.7076 38.0329 62.8335 41.8874 62.8335V65.1611C41.8874 66.4459 42.9301 67.4886 44.215 67.4886C45.4998 67.4886 46.5425 66.4459 46.5425 65.1611V62.8335C50.397 62.8335 53.5229 59.7076 53.5229 55.8531V48.8727C53.5229 45.0182 50.397 41.8923 46.5425 41.8923H41.8897C40.6049 41.8923 39.5621 40.8495 39.5621 39.5647V32.5843C39.5645 31.2972 40.6049 30.2567 41.8897 30.2567Z" fill="#8D6C9F"/>
<path d="M90.7758 123.362C72.8092 123.362 58.192 108.745 58.192 90.776C58.192 72.8095 72.8092 58.1923 90.7758 58.1923C108.745 58.1923 123.362 72.8095 123.362 90.776C123.362 92.0632 122.321 93.1036 121.034 93.1036C119.747 93.1036 118.707 92.0632 118.707 90.776C118.707 75.3768 106.177 62.8475 90.7758 62.8475C75.3765 62.8475 62.8472 75.3768 62.8472 90.776C62.8472 106.178 75.3765 118.707 90.7758 118.707C92.0629 118.707 93.1033 119.747 93.1033 121.035C93.1033 122.322 92.0629 123.362 90.7758 123.362Z" fill="#8D6C9F"/>
<path d="M100.086 109.397H93.1033C86.6862 109.397 81.4655 104.176 81.4655 97.7588V83.7933C81.4655 77.3762 86.6862 72.1554 93.1033 72.1554H100.086C101.373 72.1554 102.414 73.1959 102.414 74.483C102.414 75.7702 101.373 76.8106 100.086 76.8106H93.1033C89.2535 76.8106 86.1206 79.9435 86.1206 83.7933V97.7588C86.1206 101.609 89.2535 104.742 93.1033 104.742H100.086C101.373 104.742 102.414 105.782 102.414 107.069C102.414 108.356 101.373 109.397 100.086 109.397Z" fill="#8D6C9F"/>
<path d="M95.4309 90.776H79.1379C77.8507 90.776 76.8103 89.7356 76.8103 88.4485C76.8103 87.1613 77.8507 86.1209 79.1379 86.1209H95.4309C96.7181 86.1209 97.7585 87.1613 97.7585 88.4485C97.7585 89.7356 96.7181 90.776 95.4309 90.776Z" fill="#8D6C9F"/>
<path d="M93.1034 100.086H76.8104C75.5232 100.086 74.4828 99.0459 74.4828 97.7588C74.4828 96.4716 75.5232 95.4312 76.8104 95.4312H93.1034C94.3905 95.4312 95.431 96.4716 95.431 97.7588C95.431 99.0459 94.3905 100.086 93.1034 100.086Z" fill="#8D6C9F"/>
<path d="M41.8967 123.362H16.2934C7.31128 123.362 0.000366211 116.051 0.000366211 107.069V93.1036C0.000366211 91.8165 1.04079 90.7761 2.32794 90.7761C3.61509 90.7761 4.65552 91.8165 4.65552 93.1036V107.069C4.65552 113.486 9.87627 118.707 16.2934 118.707H41.8967C43.1839 118.707 44.2243 119.747 44.2243 121.035C44.2243 122.322 43.1839 123.362 41.8967 123.362Z" fill="#8D6C9F"/>
<path d="M132.672 44.2245C131.385 44.2245 130.345 43.1841 130.345 41.8969V27.9315C130.345 21.5144 125.124 16.2936 118.707 16.2936H93.1033C91.8162 16.2936 90.7758 15.2532 90.7758 13.966C90.7758 12.6789 91.8162 11.6385 93.1033 11.6385H118.707C127.689 11.6385 135 18.9494 135 27.9315V41.8969C135 43.1841 133.959 44.2245 132.672 44.2245Z" fill="#8D6C9F"/>
<path d="M104.741 27.9315C104.145 27.9315 103.549 27.7034 103.096 27.2495L91.4577 15.6116C90.5476 14.7016 90.5476 13.2305 91.4577 12.3204L103.096 0.682562C104.006 -0.227521 105.477 -0.227521 106.387 0.682562C107.297 1.59264 107.297 3.06367 106.387 3.97375L96.3945 13.966L106.387 23.9583C107.297 24.8684 107.297 26.3394 106.387 27.2495C105.933 27.7034 105.337 27.9315 104.741 27.9315Z" fill="#8D6C9F"/>
<path d="M30.2588 135C29.663 135 29.0671 134.772 28.6132 134.318C27.7031 133.408 27.7031 131.937 28.6132 131.027L38.6055 121.035L28.6132 111.042C27.7031 110.132 27.7031 108.661 28.6132 107.751C29.5233 106.841 30.9943 106.841 31.9044 107.751L43.5423 119.389C44.4524 120.299 44.4524 121.77 43.5423 122.68L31.9044 134.318C31.4505 134.772 30.8547 135 30.2588 135Z" fill="#8D6C9F"/>
<path d="M121.372 104.239C121.109 104.239 120.839 104.192 120.576 104.097L116.2 102.505C114.992 102.067 114.368 100.731 114.808 99.5231C115.246 98.3151 116.579 97.6936 117.79 98.1312L122.165 99.7232C123.373 100.161 123.997 101.497 123.557 102.705C123.215 103.652 122.321 104.239 121.372 104.239Z" fill="#8D6C9F"/>
<path d="M113.816 116.144C113.221 116.144 112.625 115.916 112.171 115.462L108.88 112.171C107.97 111.261 107.97 109.79 108.88 108.88C109.79 107.97 111.261 107.97 112.171 108.88L115.462 112.171C116.372 113.081 116.372 114.552 115.462 115.462C115.008 115.919 114.412 116.144 113.816 116.144Z" fill="#8D6C9F"/>
<path d="M101.911 123.7C100.961 123.7 100.067 123.113 99.7253 122.168L98.1332 117.792C97.6933 116.582 98.3171 115.248 99.5251 114.811C100.738 114.371 102.069 114.994 102.507 116.202L104.099 120.578C104.539 121.789 103.915 123.122 102.707 123.56C102.444 123.653 102.174 123.7 101.911 123.7Z" fill="#8D6C9F"/>
</g>
<defs>
<clipPath id="clip0_203_4">
<rect width="135" height="135" fill="white"/>
</clipPath>
</defs>
</svg>
