<svg height="500" viewBox="3 2.99974918 58 58.00025177" width="500" xmlns="http://www.w3.org/2000/svg"><path d="m22 4c-9.941 0-18 8.059-18 18s8.059 18 18 18 18-8.059 18-18-8.059-18-18-18z" fill="#f6d397"/><path d="m22 41c-10.477 0-19-8.523-19-19s8.523-19 19-19 19 8.523 19 19-8.523 19-19 19zm0-36c-9.374 0-17 7.626-17 17s7.626 17 17 17 17-7.626 17-17-7.626-17-17-17z" fill="#8d6c9f"/><path d="m35.005 22.003c0 7.181-5.821 13.002-13.002 13.002h-.455c-2.778-.093-5.452-1.082-7.622-2.82-.519-.408-1.006-.856-1.455-1.341-.681-.741-1.273-1.559-1.763-2.438-.347-.601-.646-1.229-.894-1.877-.529-1.451-.804-2.982-.813-4.526 0-7.181 5.821-13.002 13.002-13.002.582-.001 1.163.04 1.739.122.952.124 1.887.356 2.787.691.656.243 1.289.542 1.893.894.88.491 1.699 1.086 2.438 1.771.486.444.935.928 1.341 1.446 1.732 2.172 2.715 4.846 2.803 7.622.001.147.001.302.001.456z" fill="#f9e3ae"/><path d="m35.005 21.548-5.119 5.111-1.381 1.39-1.138 1.13-5.818 5.826c-2.778-.093-5.452-1.082-7.622-2.82l15.716-15.732 2.535-2.527c1.74 2.169 2.732 4.843 2.827 7.622zm-4.169-9.069-18.365 18.357c-.681-.741-1.273-1.559-1.763-2.438l17.715-17.69c.872.493 1.682 1.087 2.413 1.771zm-4.307-2.665-16.715 16.715c-.339-.901-.571-1.84-.691-2.795l2.316-2.34 1.828-1.828 10.475-10.443c.952.125 1.887.356 2.787.691z" fill="#ffefca"/><path d="m22.003 36.005c-7.72 0-14.001-6.281-14.001-14.002 0-7.72 6.281-14.001 14.001-14.001.553 0 1 .447 1 1s-.447 1-1 1c-6.617 0-12.001 5.384-12.001 12.001 0 6.618 5.384 12.002 12.001 12.002 6.618 0 12.002-5.384 12.002-12.002 0-2.8-.985-5.524-2.773-7.673-.354-.424-.296-1.055.129-1.408s1.055-.295 1.408.129c2.087 2.506 3.236 5.686 3.236 8.952 0 7.721-6.281 14.002-14.002 14.002z" fill="#8d6c9f"/><path d="m28.931 12c-.183 0-.367-.05-.533-.154-.846-.534-1.756-.961-2.704-1.267-.526-.17-.814-.733-.646-1.259.17-.525.734-.812 1.259-.646 1.109.358 2.172.855 3.159 1.479.467.295.606.913.312 1.38-.191.302-.515.467-.847.467z" fill="#8d6c9f"/><path d="m41.997 24c-9.939 0-17.997 8.058-17.997 17.997s8.058 17.997 17.997 17.997 17.997-8.058 17.997-17.997-8.057-17.997-17.997-17.997z" fill="#f6d397"/><path d="m41.997 60.994c-10.475 0-18.997-8.522-18.997-18.997s8.522-18.997 18.997-18.997 18.997 8.522 18.997 18.997-8.522 18.997-18.997 18.997zm0-35.994c-9.372 0-16.997 7.625-16.997 16.997s7.625 16.997 16.997 16.997 16.997-7.625 16.997-16.997-7.625-16.997-16.997-16.997z" fill="#8d6c9f"/><path d="m55 42c0 7.18-5.82 13-13 13h-.455c-2.778-.093-5.452-1.082-7.621-2.819-.519-.408-1.006-.856-1.454-1.341-.681-.741-1.273-1.559-1.763-2.437-.347-.601-.646-1.229-.894-1.877-.529-1.451-.804-2.982-.812-4.526 0-7.18 5.82-13 13-13 .582-.001 1.163.04 1.739.122.952.124 1.887.356 2.787.691.655.243 1.289.542 1.893.894.88.491 1.699 1.086 2.437 1.771.486.444.935.928 1.341 1.446 1.732 2.172 2.715 4.845 2.803 7.621-.001.147-.001.301-.001.455z" fill="#f9e3ae"/><path d="m55 41.545-5.119 5.11-1.381 1.39-1.137 1.129-5.818 5.826c-2.778-.093-5.452-1.082-7.621-2.819l15.713-15.73 2.535-2.527c1.741 2.169 2.733 4.842 2.828 7.621zm-4.168-9.067-18.362 18.354c-.681-.741-1.272-1.559-1.763-2.437l17.712-17.688c.872.493 1.682 1.087 2.413 1.771zm-4.306-2.665-16.713 16.713c-.339-.901-.571-1.839-.691-2.795l2.316-2.34 1.828-1.828 10.473-10.44c.952.124 1.887.356 2.787.69z" fill="#ffefca"/><path d="m14.28 15.28 1.07 1.939 1.939 1.06-1.939 1.06-1.07 1.939-1.06-1.939-1.939-1.06 1.939-1.06zm2.308 13.745.5.91.91.5-.91.5-.5.91-.5-.91-.91-.5.91-.5zm12.827-13.027.85 1.56 1.57.86-1.57.85-.85 1.57-.86-1.57-1.56-.85 1.56-.86z" fill="#fff8f8"/><path d="m50.28 42.28 1.07 1.939 1.939 1.06-1.939 1.06-1.07 1.939-1.06-1.939-1.939-1.06 1.939-1.06zm-13.692 5.745.5.91.91.5-.91.5-.5.91-.5-.91-.91-.5.91-.5zm-.173-15.027.85 1.56 1.57.86-1.57.85-.85 1.57-.86-1.57-1.56-.85 1.56-.86z" fill="#fff8f8"/><g fill="#8d6c9f"><path d="m20.997 15.999h1.999c.552 0 1 .448 1 1s.448 1 1 1 1-.448 1-1c0-1.656-1.343-2.999-2.999-2.999v-1c0-.552-.448-1-1-1s-1 .448-1 1v1c-1.656 0-2.999 1.343-2.999 2.999v2.999c0 1.656 1.343 2.999 2.999 2.999h1.999c.552 0 1 .448 1 1v2.999c0 .552-.448 1-1 1h-1.999c-.552 0-1-.448-1-1s-.448-1-1-1-1 .448-1 1c0 1.656 1.343 2.999 2.999 2.999v1c0 .552.448 1 1 1s1-.448 1-1v-1c1.656 0 2.999-1.343 2.999-2.999v-2.999c0-1.656-1.343-2.999-2.999-2.999h-1.999c-.552 0-1-.448-1-1v-2.999c.001-.553.448-1 1-1z"/><path d="m42 56c-7.719 0-13.999-6.28-13.999-14 0-7.719 6.28-13.999 13.999-13.999 7.72 0 14 6.28 14 13.999 0 .553-.447 1-1 1s-1-.447-1-1c0-6.616-5.383-11.999-12-11.999-6.616 0-11.999 5.383-11.999 11.999 0 6.617 5.383 12 11.999 12 .553 0 1 .447 1 1s-.447 1-1 1z"/><path d="m46 50h-3c-2.757 0-5-2.243-5-5v-6c0-2.757 2.243-5 5-5h3c.553 0 1 .447 1 1s-.447 1-1 1h-3c-1.654 0-3 1.346-3 3v6c0 1.654 1.346 3 3 3h3c.553 0 1 .447 1 1s-.447 1-1 1z"/><path d="m44 42h-7c-.553 0-1-.447-1-1s.447-1 1-1h7c.553 0 1 .447 1 1s-.447 1-1 1z"/><path d="m43 46h-7c-.553 0-1-.447-1-1s.447-1 1-1h7c.553 0 1 .447 1 1s-.447 1-1 1z"/><path d="m21 56h-11c-3.859 0-7-3.141-7-7v-6c0-.553.447-1 1-1s1 .447 1 1v6c0 2.757 2.243 5 5 5h11c.553 0 1 .447 1 1s-.447 1-1 1z"/><path d="m60 22c-.553 0-1-.447-1-1v-6c0-2.757-2.243-5-5-5h-11c-.553 0-1-.447-1-1s.447-1 1-1h11c3.859 0 7 3.141 7 7v6c0 .553-.447 1-1 1z"/><path d="m48 15c-.256 0-.512-.098-.707-.293l-5-5c-.391-.391-.391-1.023 0-1.414l5-5c.391-.391 1.023-.391 1.414 0s.391 1.023 0 1.414l-4.293 4.293 4.293 4.293c.391.391.391 1.023 0 1.414-.195.195-.451.293-.707.293z"/><path d="m16 61c-.256 0-.512-.098-.707-.293-.391-.391-.391-1.023 0-1.414l4.293-4.293-4.293-4.293c-.391-.391-.391-1.023 0-1.414s1.023-.391 1.414 0l5 5c.391.391.391 1.023 0 1.414l-5 5c-.195.195-.451.293-.707.293z"/><path d="m55.145 47.784c-.113 0-.229-.02-.342-.061l-1.88-.684c-.519-.188-.787-.762-.598-1.281.188-.519.761-.786 1.281-.598l1.88.684c.519.188.787.762.598 1.281-.147.407-.531.659-.939.659z"/><path d="m51.899 52.899c-.256 0-.512-.098-.707-.293l-1.414-1.414c-.391-.391-.391-1.023 0-1.414s1.023-.391 1.414 0l1.414 1.414c.391.391.391 1.023 0 1.414-.195.196-.451.293-.707.293z"/><path d="m46.784 56.145c-.408 0-.792-.252-.939-.658l-.684-1.88c-.189-.52.079-1.093.598-1.281.521-.189 1.093.079 1.281.598l.684 1.88c.189.52-.079 1.093-.598 1.281-.113.04-.229.06-.342.06z"/></g></svg>